<svg xmlns="http://www.w3.org/2000/svg" width="4011" height="4010" viewBox="-1 0 4011 4010"><defs><radialGradient id="c" cx="0" cy="0" r="1" gradientTransform="matrix(2080 2688 -2688 2080 1008 608)" href="#a"><stop stop-color="#927be5"/><stop offset="1" stop-color="#532dd4"/></radialGradient><linearGradient id="a" gradientUnits="userSpaceOnUse"/></defs><path d="M1001.5 0C447.8 0-1 448.8-1 1002.5v2005C-1 3561.2 447.8 4010 1001.5 4010h2005c553.7 0 1002.5-448.8 1002.5-1002.5V1125h1V0H2885z" class="a" style="fill:url(#c)"/><path xmlns="http://www.w3.org/2000/svg" fill="#fff" d="M1176.47 1756.16v497.56c0 68.29 53.51 124.37 118.69 124.37s118.68-56.08 118.68-124.37c0-95.7 98.11-155.22 177.43-107.38 35.98 21.53 58.73 62.72 58.73 107.38 0 287.04-295.79 465.9-532.27 322.39-110.09-65.92-177.42-189.78-177.42-322.39v-497.56c0-285.99 296.11-465.93 532.27-322.42 110.09 66.73 177.42 189.79 177.42 322.42 0 95.67-98.09 156-177.42 108.16-36.91-22.31-58.74-63.52-58.74-108.16 0-94.89-99.01-154.95-177.42-107.12-36.91 22.32-59.02 63.51-59.02 107.12zm1893.22 497.56c0 68.29-53.51 124.37-118.69 124.37h-118.37v123.86c0 32.95-12.61 65.12-34.44 88.24-46.44 48.64-121.16 48.64-167.28 0-22.14-23.91-34.76-55.29-34.76-88.24v-123.86h-236.16v123.86c0 68.32-53.5 124.39-118.69 124.39-65.18 0-118.38-56.07-118.38-124.39v-123.86h-117.77c-91.33 0-148.5-103.91-103-186.31 21.21-38.8 60.58-62.73 103-62.73h117.77V1880.8h-117.77c-91.33 0-148.5-103.11-103-186.32 21.21-38 60.58-61.91 103-61.91h117.77v-124.66c0-95.68 98.7-154.95 177.43-107.12 36.9 22.34 59.64 62.73 59.64 107.12v124.66h236.16v-124.66c0-95.68 98.41-154.95 177.43-107.12 36.28 22.34 59.05 62.73 59.05 107.12v124.66H2951c31.68 0 61.48 13.27 83.34 36.13 46.41 48.91 46.41 127.06 0 175.7-21.86 23.12-51.66 36.4-83.34 36.4h-118.37v248.25H2951c65.18 0 117.76 56.08 118.69 124.67m-473.54-372.92h-236.16v248.25h236.16z" filter="url(#b)" style="mix-blend-mode:screen;stroke-width:.879"/></svg>