<svg xmlns="http://www.w3.org/2000/svg" width="4011" height="4010" viewBox="-1 0 4011 4010"><defs><clipPath id="a" clipPathUnits="userSpaceOnUse"><path d="M0 0h4010v4010H0z"/></clipPath></defs><g clip-path="url(#a)"><path d="M10.7 3161.3c74 480.7 489.4 848.7 990.8 848.7h2005c502.2 0 918.2-369.3 991.1-851.1L2006.3 2008.8z" class="a" style="fill:#004482"/><path d="M3997.6 3158.9c7.5-49.4 11.4-99.9 11.4-151.4V1125h1V851.6L2006.3 2008.8z" class="b" style="fill:#00599c"/><path d="M1001.5 0C447.8 0-1 448.8-1 1002.5v2005c0 52.3 4 103.7 11.7 153.8L4010 851.6V0H2885z" class="c" style="fill:#659ad2"/></g><path fill="#FFF" d="M2004.967 3336.154c-734 0-1331.154-597.153-1331.154-1331.153S1270.966 673.847 2004.967 673.847c473.63 0 915.35 254.877 1152.766 665.16l-576.09 333.362c-118.824-205.363-339.809-332.945-576.676-332.945-367.007 0-665.577 298.57-665.577 665.577 0 366.994 298.57 665.576 665.577 665.576 236.893 0 457.878-127.581 576.716-332.984l576.09 333.35c-237.416 410.321-679.15 665.211-1152.806 665.211"/><path fill="#FFF" d="M3336.12 1931.043h-147.914v-147.901h-147.889v147.901h-147.914v147.902h147.914v147.915h147.889v-147.915h147.915zM3890.768 1931.043h-147.915v-147.901h-147.888v147.901H3447.05v147.902h147.915v147.915h147.888v-147.915h147.915z"/></svg>