<?xml version="1.0" encoding="utf-8"?>
<svg xmlns="http://www.w3.org/2000/svg" viewBox="-1 0 4011 4010" width="4011px" height="4010px"><defs><clipPath clipPathUnits="userSpaceOnUse" id="cp1"><path d="m0 0h4010v4010h-4010z"/></clipPath></defs><g id="object-0" transform="matrix(1, 0, 0, 1, 0, -1.1368683772161603e-13)"><g clip-path="url(#cp1)"><path class="a" d="m1001.5 0c-553.7 0-1002.5 448.8-1002.5 1002.5v2005c0 553.7 448.8 1002.5 1002.5 1002.5h2005c553.7 0 1002.5-448.8 1002.5-1002.5v-1882.5h1v-1125h-1003.5-121.5z" style="fill: rgb(48, 48, 63);"/></g><g id="svg814" style="transform-origin: 2680.46px 2143.49px;" transform="matrix(25.791677, 0, 0, 25.791677, -675.457845, -138.468769)"><g id="layer1" transform="matrix(1, 0, 0, 1, 2520.326979, 2000.602599)"><g aria-label="C" id="text1719" style="font-weight:bold;font-size:123.472px;font-family:'Neue Haas Grotesk Text Pro';-inkscape-font-specification:'Neue Haas Grotesk Text Pro Bold';fill:#a9bacd;stroke-width:0.264583;fill-opacity:1"><path d="m 204.33454,132.38818 c -2.34597,-22.84232 -17.53303,-36.300767 -44.69687,-36.300767 -24.81787,0 -44.32644,17.903437 -44.32644,46.672417 0,28.89245 17.77996,46.91936 47.1663,46.91936 23.45968,0 39.88146,-13.82886 42.47437,-36.79466 h -28.02815 c -1.11124,8.51957 -5.55624,15.06359 -14.94011,15.06359 -14.81664,0 -17.53302,-11.72984 -17.53302,-24.20051 0,-17.16261 6.1736,-25.92912 16.42177,-25.92912 9.13693,0 14.94012,5.30929 15.80442,14.56969 z" style="font-weight:900;font-family:'Helvetica LT Std';-inkscape-font-specification:'Helvetica LT Std Heavy';fill:#a9bacd;fill-opacity:1" id="path1771"/></g></g></g></g></svg>