<?xml version="1.0" encoding="UTF-8" standalone="no"?>
<svg height="546.1333" version="1.1" viewBox="0 0 102.37159 144.49777" width="386.91626" xml:space="preserve" xmlns:cc="http://creativecommons.org/ns#" xmlns:dc="http://purl.org/dc/elements/1.1/" xmlns:rdf="http://www.w3.org/1999/02/22-rdf-syntax-ns#" xmlns:svg="http://www.w3.org/2000/svg" xmlns="http://www.w3.org/2000/svg">
  <title> CSS </title>
  <g transform="translate(-38.649928, -93.869758)">
    <g transform="matrix(0.28222221, 0, 0, 0.28222221, 17.586838, 93.869758)">
      <polygon points="74.633, 100.62 437.367, 100.62 404.321, 470.819 255.778, 512 107.644, 470.877" style="fill: #264DE4"/>
      <polygon points="404.27, 130.894 256, 130.894 256, 480.523 376.03, 447.246" style="fill: #2965F1"/>
      <polygon points="154.38, 313.627 256, 313.627 256, 268.217 150.31, 268.217" style="fill: #EBEBEB"/>
      <polygon points="256, 221.716 256, 176.305 255.843, 176.305 142.132, 176.305 146.26, 221.716" style="fill: #EBEBEB"/>
      <polygon points="256, 433.399 256, 386.153 255.801, 386.206 205.227, 372.55 201.994, 336.333 177.419, 336.333 156.409, 336.333 162.771, 407.634 255.791, 433.457" style="fill: #EBEBEB"/>
      <path d="m 160, 0 h 55 v 23 h -32 v 23 h 32 v 23 h -55 z"/>
      <path d="m 226, 0 h 55 v 20 h -32 v 4 h 32 V 70 H 226 V 49 h 32 v -4 h -32 z"/>
      <path d="m 292, 0 h 55 v 20 h -32 v 4 h 32 V 70 H 292 V 49 h 32 v -4 h -32 z"/>
      <polygon points="255.843, 176.305 255.843, 221.716 319.831, 221.716 315.699, 268.217 255.843, 268.217 255.843, 313.627 311.761, 313.627 306.49, 372.521 255.843, 386.191 255.843, 433.435 348.937, 407.634 349.62, 399.962 360.291, 280.411 361.399, 268.217 369.597, 176.305" style="fill: #FFFFFF"/>
    </g>
  </g>
  <metadata> <rdf:RDF> <cc:Work rdf:about=""> <dc:title> CSS </dc:title> </cc:Work> </rdf:RDF> </metadata>
</svg>
