<svg xmlns="http://www.w3.org/2000/svg" width="4011" height="4010" viewBox="-1 0 4011 4010"><defs><clipPath id="a" clipPathUnits="userSpaceOnUse"><path d="M0 0h4010v4010H0z"/></clipPath></defs><g clip-path="url(#a)"><path d="M1001.5 0C447.8 0-1 448.8-1 1002.5v2005C-1 3561.2 447.8 4010 1001.5 4010h2005c553.7 0 1002.5-448.8 1002.5-1002.5V1125h1V0H2885z" class="a" style="fill:#30303f"/></g><path d="m556.367 376.982-33.046 370.199-148.543 41.181-148.134-41.123-33.011-370.257z" style="fill:#264de4;stroke-width:1" transform="matrix(5.99975 0 0 5.99975 -244.906 -1189.04)"/><path d="m495.03 723.608 28.24-316.352H375v349.629z" style="fill:#2965f1;stroke-width:1" transform="matrix(5.99975 0 0 5.99975 -244.906 -1189.04)"/><path d="m269.31 544.579 4.07 45.41H375v-45.41zM375 452.667H261.132l4.128 45.411H375zM375 709.761v-47.246l-.199.053-50.574-13.656-3.233-36.217h-45.585l6.362 71.301 93.02 25.823z" style="fill:#ebebeb;stroke-width:1" transform="matrix(5.99975 0 0 5.99975 -244.906 -1189.04)"/><path d="M279 276.362h55v23h-32v23h32v23h-55zM345 276.362h55v20h-32v4h32v46h-55v-21h32v-4h-32zM411 276.362h55v20h-32v4h32v46h-55v-21h32v-4h-32z" style="stroke-width:1" transform="matrix(5.99975 0 0 5.99975 -244.906 -1189.04)"/><path d="m430.761 589.989-5.271 58.894-50.647 13.67v47.244l93.094-25.801.683-7.672 10.671-119.551 1.108-12.194 8.198-91.912H374.843v45.411h63.988l-4.132 46.501h-59.856v45.41z" style="fill:#fff;stroke-width:1" transform="matrix(5.99975 0 0 5.99975 -244.906 -1189.04)"/></svg>