<?xml version="1.0" encoding="UTF-8" standalone="no"?>
<svg height="512" version="1.1" viewBox="0 0 95.990828 135.46667" width="362.79999" xml:space="preserve" xmlns:cc="http://creativecommons.org/ns#" xmlns:dc="http://purl.org/dc/elements/1.1/" xmlns:rdf="http://www.w3.org/1999/02/22-rdf-syntax-ns#" xmlns:svg="http://www.w3.org/2000/svg" xmlns="http://www.w3.org/2000/svg">
  <title> HTML </title>
  <g transform="translate(-80.949825, -56.952456)">
    <g transform="matrix(0.26458333, 0, 0, 0.26458333, 61.211909, 56.952456)">
      <path d="m 108.4, 0 h 23 v 22.8 h 21.2 V 0 h 23 v 69 h -23 V 46 h -21 V 69 H 108.4 M 206, 23 H 185.7 V 0 h 63.7 V 23 H 229 V 69 H 206 M 259.5, 0 h 24.1 L 298.4, 24.3 313.2, 0 h 24.1 v 69 h -23 V 34.8 L 298.2, 59.6 282.1, 34.8 V 69 H 259.5 M 348.7, 0 h 23 v 46.2 h 32.6 V 69 h -55.6"/>
      <path d="M 107.6, 471 74.6, 100.6 H 437.4 L 404.4, 470.8 255.7, 512" fill="#E44D26"/>
      <path d="M 256, 480.5 V 131 H 404.3 L 376, 447" fill="#F16529"/>
      <path d="m 142, 176.3 h 114 v 45.4 h -64.2 l 4.2, 46.5 h 60 v 45.3 H 154.4 m 2, 22.8 H 202 l 3.2, 36.3 50.8, 13.6 v 47.4 l -93.2, -26" fill="#EBEBEB"/>
      <path d="M 369.6, 176.3 H 255.8 v 45.4 h 109.6 m -4.1, 46.5 H 255.8 v 45.4 h 56 l -5.3, 59 -50.7, 13.6 v 47.2 l 93, -25.8" fill="#FFFFFF"/>
     </g>
   </g>
   <metadata> <rdf:RDF> <cc:Work rdf:about=""> <dc:title> HTML </dc:title> </cc:Work> </rdf:RDF> </metadata>
 </svg>
