<svg xmlns="http://www.w3.org/2000/svg" width="4011" height="4010" viewBox="-1 0 4011 4010"><defs><clipPath id="a" clipPathUnits="userSpaceOnUse"><path d="M0 0h4010v4010H0z"/></clipPath></defs><g clip-path="url(#a)"><path d="M1001.5 0C447.8 0-1 448.8-1 1002.5v2005C-1 3561.2 447.8 4010 1001.5 4010h2005c553.7 0 1002.5-448.8 1002.5-1002.5V1125h1V0H2885z" class="a" style="fill:#e44d26;fill-opacity:1"/><path d="M1983 3791h914.1c493.2 0 893-399.8 893-893V1221.1h.9V219H1983z" class="b" style="fill:#f16529;fill-opacity:1"/></g><path d="M971.953 455.188h161.077V614.8h148.48V455.188h161.08v483.244h-161.08V777.351h-147.08v161.081H971.953m683.537-322.161h-142.17V455.188h446.12v161.083h-142.87v322.161h-161.08m374.69-483.244h168.78l103.66 170.117 103.65-170.117h168.78v483.244h-161.08v-239.59l-112.76 173.687-112.75-173.687v239.59h-158.28m624.71-483.244h161.08v323.564h228.31v159.68h-389.39" style="stroke-width:8.914"/><path fill="#ebebeb" d="M1207.27 1689.84h798.4v318.03h-449.63l29.42 325.66h420.21v317.25h-711.56m14.01 159.69h319.36l22.41 254.15 355.78 95.25v331.96l-652.73-182.09" style="stroke-width:8.914"/><path fill="#fff" d="M2801.27 1689.84h-797v318.03h767.58m-28.71 325.66h-738.87v317.89h392.19l-37.12 413.2-355.07 95.25v330.63l651.32-180.76" style="stroke-width:8.914"/></svg>