<svg xmlns="http://www.w3.org/2000/svg" width="4011" height="4010" viewBox="-1 0 4011 4010"><defs><clipPath id="a" clipPathUnits="userSpaceOnUse"><path d="M0 0h4010v4010H0z"/></clipPath></defs><g clip-path="url(#a)"><path d="M1001.5 0C447.8 0-1 448.8-1 1002.5v2005C-1 3561.2 447.8 4010 1001.5 4010h2005c553.7 0 1002.5-448.8 1002.5-1002.5V1125h1V0H2885z" class="a" style="fill:#30303f"/></g><path d="M2992.45 1868.57h23v22.8h21.2v-22.8h23v69h-23v-23h-21v23h-23.2m97.6-46h-20.3v-23h63.7v23h-20.4v46h-23m53.5-69h24.1l14.8 24.3 14.8-24.3h24.1v69h-23v-34.2l-16.1 24.8-16.1-24.8v34.2h-22.6m89.2-69h23v46.2h32.6v22.8h-55.6" style="stroke-width:1" transform="matrix(6.00627 0 0 6.00627 -16854.981 -10755.737)"/><path fill="#e44d26" d="m2991.65 2339.57-33-370.4h362.8l-33 370.2-148.7 41.2" style="stroke-width:1" transform="matrix(6.00627 0 0 6.00627 -16854.981 -10755.737)"/><path fill="#f16529" d="M3140.05 2349.07v-349.5h148.3l-28.3 316" style="stroke-width:1" transform="matrix(6.00627 0 0 6.00627 -16854.981 -10755.737)"/><path fill="#ebebeb" d="M3026.05 2044.87h114v45.4h-64.2l4.2 46.5h60v45.3h-101.6m2 22.8h45.6l3.2 36.3 50.8 13.6v47.4l-93.2-26" style="stroke-width:1" transform="matrix(6.00627 0 0 6.00627 -16854.981 -10755.737)"/><path fill="#fff" d="M3253.65 2044.87h-113.8v45.4h109.6m-4.1 46.5h-105.5v45.4h56l-5.3 59-50.7 13.6v47.2l93-25.8" style="stroke-width:1" transform="matrix(6.00627 0 0 6.00627 -16854.981 -10755.737)"/></svg>