<svg xmlns="http://www.w3.org/2000/svg" width="4011" height="4010" viewBox="-1 0 4011 4010"><defs><clipPath id="a" clipPathUnits="userSpaceOnUse"><path d="M0 0h4010v4010H0z"/></clipPath></defs><g clip-path="url(#a)"><path d="M1001.5 0C447.8 0-1 448.8-1 1002.5v2005C-1 3561.2 447.8 4010 1001.5 4010h2005c553.7 0 1002.5-448.8 1002.5-1002.5V1125h1V0H2885z" class="a" style="fill:#f0db4f"/></g><path fill="#323330" d="M3674.34 3048.95c-29.22-182.15-148-335.08-499.78-477.76-122.19-56.17-258.42-96.39-299.03-188.99-14.42-53.88-16.32-84.24-7.21-116.88 26.19-105.87 152.55-138.89 252.74-108.53 64.51 21.63 125.6 71.35 162.41 150.66 172.29-111.57 171.91-110.81 292.21-187.47-44.02-68.3-67.55-99.8-96.39-129.02-103.6-115.74-244.77-175.32-470.56-170.77-39.09 4.94-78.51 10.25-117.64 15.18-112.67 28.46-220.1 87.66-283.09 166.97-188.99 214.41-135.1 589.72 94.87 744.17 226.55 170 559.35 208.71 601.85 367.71 41.37 194.68-143.02 257.67-326.35 235.28-135.09-28.08-210.19-96.76-291.44-221.61-149.48 86.52-149.48 86.52-303.17 174.94 36.39 79.69 74.72 115.74 135.85 184.81 289.17 293.33 1012.8 278.91 1142.63-165.08 5.27-15.18 40.22-116.88 12.1-273.61M2179.18 1843.72h-373.41c0 322.56-1.52 642.84-1.52 965.4 0 205.3 10.63 393.52-22.77 451.2-54.6 113.47-196.19 99.43-260.7 77.42-65.65-32.26-99.01-78.17-137.75-143.06-10.59-18.6-18.56-33.02-21.25-34.16-101.29 61.86-202.27 124.09-303.59 185.95 50.51 103.6 124.85 193.53 220.1 251.97 142.31 85.39 333.57 111.57 533.55 65.65 130.17-37.94 242.49-116.5 301.31-236.03 85.01-156.73 66.79-346.47 66.03-556.32 1.9-342.3 0-684.59 0-1028.02" style="stroke-width:3.795"/></svg>