<svg xmlns="http://www.w3.org/2000/svg" width="4011" height="4010" viewBox="-1 0 4011 4010"><defs><clipPath id="a" clipPathUnits="userSpaceOnUse"><path d="M0 0h4010v4010H0z"/></clipPath></defs><g clip-path="url(#a)"><path d="M1001.5 0C447.8 0-1 448.8-1 1002.5v2005C-1 3561.2 447.8 4010 1001.5 4010h2005c553.7 0 1002.5-448.8 1002.5-1002.5V1125h1V0H2885z" class="a" style="fill:#30303f"/></g><path d="M2881.66 2577.51h-2.04v-1.14h5.49v1.14h-2.03v5.68h-1.42zm10.94.29h-.03l-2.02 5.4h-.92l-2.01-5.4h-.02v5.4h-1.35v-6.83h1.98l1.86 4.83 1.85-4.83h1.97v6.83h-1.31zM2699.24 2437.89s-14.18 8.24 10.09 11.03c29.4 3.35 44.42 2.87 76.82-3.26 0 0 8.52 5.34 20.42 9.97-72.63 31.13-164.38-1.81-107.33-17.74M2690.36 2397.26s-15.9 11.78 8.39 14.29c31.4 3.24 56.2 3.5 99.12-4.76 0 0 5.94 6.02 15.27 9.31-87.81 25.68-185.62 2.02-122.78-18.84" style="fill:#5382a1;stroke-width:1" transform="matrix(6.19166 0 0 6.19166 -15012.743 -12987.576)"/><path d="M2765.18 2328.36c17.9 20.6-4.7 39.15-4.7 39.15s45.44-23.46 24.57-52.84c-19.49-27.39-34.44-41 46.48-87.93 0 0-127.01 31.72-66.35 101.62" style="fill:#f8981d;stroke-width:1" transform="matrix(6.19166 0 0 6.19166 -15012.743 -12987.576)"/><path d="M2861.24 2467.93s10.49 8.64-11.56 15.33c-41.92 12.7-174.48 16.54-211.31.51-13.24-5.76 11.59-13.75 19.4-15.43 8.14-1.77 12.8-1.44 12.8-1.44-14.73-10.37-95.16 20.37-40.86 29.17 148.08 24.02 269.94-10.81 231.53-28.14M2706.05 2355.18s-67.43 16.01-23.87 21.83c18.39 2.46 55.04 1.9 89.19-.96 27.91-2.35 55.93-7.35 55.93-7.35s-9.84 4.21-16.96 9.07c-68.48 18.01-200.76 9.63-162.68-8.79 32.21-15.57 58.39-13.8 58.39-13.8M2827.02 2422.79c69.61-36.17 37.42-70.93 14.96-66.25-5.51 1.15-7.96 2.14-7.96 2.14s2.04-3.2 5.95-4.59c44.44-15.62 78.61 46.09-14.35 70.52 0 .01 1.08-.96 1.4-1.82" style="fill:#5382a1;stroke-width:1" transform="matrix(6.19166 0 0 6.19166 -15012.743 -12987.576)"/><path d="M2785.05 2150.96s38.55 38.56-36.56 97.86c-60.23 47.57-13.74 74.69-.03 105.68-35.16-31.72-60.96-59.65-43.65-85.64 25.41-38.15 95.8-56.64 80.24-117.9" style="fill:#f8981d;stroke-width:1" transform="matrix(6.19166 0 0 6.19166 -15012.743 -12987.576)"/><path d="M2712.89 2520.81c66.82 4.27 169.42-2.38 171.85-33.99 0 0-4.67 11.98-55.22 21.5-57.03 10.73-127.36 9.48-169.08 2.6 0 0 8.54 7.07 52.45 9.89M2701.95 2641.61c-6.31 5.47-12.96 8.53-18.94 8.53-8.53 0-13.13-5.11-13.13-13.31 0-8.87 4.93-15.36 24.74-15.36h7.32v20.14m17.4 19.62v-60.74c0-15.52-8.85-25.76-30.19-25.76-12.46 0-23.37 3.08-32.24 7l2.56 10.76c6.98-2.57 16.02-4.95 24.89-4.95 12.3 0 17.59 4.95 17.59 15.18v7.67h-6.14c-29.86 0-43.34 11.6-43.34 29 0 15.02 8.88 23.55 25.6 23.55 10.74 0 18.76-4.43 26.26-10.93l1.36 9.22zM2777.38 2661.23h-21.69l-26.11-84.96h18.95l16.19 52.2 3.61 15.7c8.19-22.7 13.99-45.72 16.89-67.9h18.42c-4.93 27.98-13.82 58.69-26.26 84.96M2860.59 2641.61c-6.31 5.47-12.98 8.53-18.95 8.53-8.52 0-13.13-5.11-13.13-13.31 0-8.87 4.94-15.36 24.74-15.36h7.34zm17.39 19.62v-60.74c0-15.52-8.87-25.76-30.18-25.76-12.47 0-23.38 3.08-32.25 7l2.56 10.76c6.98-2.57 16.04-4.95 24.9-4.95 12.29 0 17.58 4.95 17.58 15.18v7.67h-6.14c-29.88 0-43.34 11.6-43.34 29 0 15.02 8.87 23.55 25.58 23.55 10.75 0 18.77-4.43 26.28-10.93l1.37 9.22zM2633.4 2675.66c-4.95 7.24-12.96 12.97-21.73 16.21l-8.59-10.11c6.68-3.42 12.4-8.95 15.06-14.1 2.3-4.59 3.25-10.49 3.25-24.61v-96.99h18.48v95.66c0 18.88-1.51 26.5-6.47 33.94" style="fill:#5382a1;stroke-width:1" transform="matrix(6.19166 0 0 6.19166 -15012.743 -12987.576)"/></svg>