<svg xmlns="http://www.w3.org/2000/svg" width="4010" height="4010"><defs><linearGradient id="a" gradientUnits="userSpaceOnUse"/><linearGradient id="d" x2="1" gradientTransform="matrix(0 4096 -4097.021 0 2047.489 0)" href="#a"><stop stop-color="#21c6fb"/><stop offset="1" stop-color="#197ff1"/></linearGradient><clipPath id="b" clipPathUnits="userSpaceOnUse"><path d="M0 0h4010v4010H0z"/></clipPath><clipPath id="c" clipPathUnits="userSpaceOnUse"><path d="M0 0h4096v4096H0z"/></clipPath></defs><g clip-path="url(#b)"><g clip-path="url(#c)" transform="scale(.975)"><path d="M1023 0C457.4 0-1 458.5-1 1024v2048c0 565.5 458.4 1024 1024 1024h2048c565.5 0 1024-458.5 1024-1024V1149.1h1V0H2946.9z" class="a" style="fill:url(#d)"/></g><path fill="#def2fe" stroke="#def2fe" stroke-linecap="square" stroke-linejoin="bevel" stroke-width=".4" d="M934.152 813.16c-57.919-.997-108.334 20.816-134.647 84.807-44.264 107.833 66.14 213.023 105.609 267.663 27.683 38.31 63.073 81.36 82.878 124.49 13.018 28.31 15.308 56.84 26.468 86.8 27.39 73.86 51.19 154.03 86.66 222.32 17.95 34.53 37.68 71.08 60.35 101.89 13.87 18.96 37.69 27.32 41.48 56.56-23.31 32.61-24.6 83.02-37.68 124.28-58.93 185.78-36.76 416.75 48.98 554.25 26.31 42.19 88.31 132.73 173.48 97.96 74.5-30.31 57.92-124.34 79.21-207.36 4.8-18.8 1.79-32.61 11.23-45.19v3.78c22.59 45.28 45.26 90.4 67.93 135.66 50.28 80.87 139.38 165.53 215.24 222.6 39.18 29.59 70.07 80.72 120.71 97.96v-3.8h-3.8c-9.8-15.29-25.1-21.73-37.68-34.03-29.54-28.89-62.42-64.85-86.82-97.97-68.71-93.24-129.35-195.27-184.68-301.53-26.47-50.78-49.42-106.69-71.51-158.32-8.58-19.88-8.44-50.05-26.32-60.36-24.38 37.83-60.42 68.44-79.23 113.13-30.18 71.43-34.04 158.45-45.18 248.77-6.67 2.37-3.66.86-7.59 3.78-52.48-12.64-70.93-66.7-90.46-113.11-49.41-117.27-58.57-306.13-15.16-441.13 11.22-34.9 62-144.94 41.48-177.26-9.8-32.19-42.2-50.7-60.35-75.3-22.45-30.39-44.84-70.44-60.35-105.55-40.4-91.45-59.29-194.13-101.83-286.74-20.31-44.19-54.629-88.95-82.873-128.2-31.248-43.55-66.358-75.59-90.6-128.219-8.656-18.73-20.178-48.546-7.442-67.712 4.079-12.954 9.731-18.45 22.529-22.669 21.876-16.878 82.8 5.651 105.547 15.087 60.489 25.098 110.899 48.982 162.169 82.873 24.6 16.3 49.56 47.83 79.22 56.57h33.9c53.06 12.22 112.55 3.86 162.19 18.87 87.65 26.67 166.25 68.07 237.61 113.13 217.38 137.21 395 332.57 516.57 565.61 19.58 37.54 28.02 73.3 45.26 113.13 34.75 80.23 78.58 162.75 113.13 241.19 34.53 78.3 68.13 157.32 116.91 222.46 25.67 34.25 124.69 52.7 169.67 71.49 31.55 13.38 83.24 27.25 113.13 45.2 57.07 34.47 112.42 75.44 165.98 113.13 26.73 18.87 109.03 60.13 113.11 94.25-132.64-3.59-233.9 8.71-320.49 45.19-24.6 10.37-63.93 10.72-67.93 41.62 13.52 14.15 15.73 35.31 26.46 52.77 20.66 33.46 55.49 78.22 86.66 101.74 34.03 25.68 69.08 53.21 105.62 75.46 64.93 39.53 137.3 62.13 199.79 101.74 36.82 23.39 73.43 52.71 109.33 79.1 17.74 13 29.68 33.24 52.77 41.4v-3.65c-12.15-15.44-15.15-36.84-26.32-52.92l-48.98-48.98c-47.91-63.65-108.83-119.48-173.48-165.9-51.55-37.04-167.1-86.95-188.62-147.02-1.29-1.27-2.51-2.5-3.8-3.78 36.54-4.16 79.53-17.32 113.27-26.31 56.7-15.23 107.26-11.37 165.75-26.47 26.39-7.51 52.85-15.01 79.24-22.52v-15.08c-29.62-30.4-50.78-70.52-83.02-97.97-84.45-72.23-176.62-143.74-271.52-203.73-52.62-33.25-117.55-54.69-173.32-82.87-18.75-9.44-51.71-14.45-64.15-30.26-29.31-37.32-45.34-84.59-67.93-128.06-47.34-91.17-93.74-190.71-135.66-286.74-28.6-65.36-47.41-129.93-83.01-188.57-171.25-281.45-355.54-451.42-641.05-618.39-60.79-35.53-133.87-49.404-211.16-67.714-41.47-2.506-83.01-5.075-124.49-7.582-25.32-10.572-51.71-41.54-75.51-56.549-59.14-37.336-176.05-102.121-272.598-103.772m408.378 409.097c-27.67-.56-47.26 3.08-67.93 7.58v3.8h3.8c13.15 27.09 36.46 44.54 52.76 67.93 12.58 26.37 25.1 52.68 37.7 79.08 1.21-1.22 2.49-2.36 3.78-3.65 23.39-16.44 34.18-42.83 34.03-83.02-9.37-9.87-10.8-22.09-18.86-33.89-10.81-15.66-31.61-24.68-45.2-37.83z"/></g></svg>