<svg xmlns="http://www.w3.org/2000/svg" width="4011" height="4010" viewBox="-1 0 4011 4010"><defs><linearGradient id="c" x1="26.649" x2="135.665" y1="20.604" y2="114.398" gradientTransform="matrix(.56254 0 0 .56797 5970.436 3083.556)" gradientUnits="userSpaceOnUse" href="#a"/><linearGradient id="a"><stop offset="0" style="stop-color:#5a9fd4;stop-opacity:1"/><stop offset="1" style="stop-color:#306998;stop-opacity:1"/></linearGradient><linearGradient id="d" x1="150.961" x2="112.031" y1="192.352" y2="137.273" gradientTransform="matrix(.56254 0 0 .56797 5970.436 3083.556)" gradientUnits="userSpaceOnUse" href="#b"/><linearGradient id="b"><stop offset="0" style="stop-color:#ffd43b;stop-opacity:1"/><stop offset="1" style="stop-color:#ffe873;stop-opacity:1"/></linearGradient></defs><path d="M1001.5 0C447.8 0-1 448.8-1 1002.5v2005C-1 3561.2 447.8 4010 1001.5 4010h2005c553.7 0 1002.5-448.8 1002.5-1002.5V1125h1V0H2885z" class="a" style="fill:#30303f"/><path d="M6040.35 3095.26c-4.59.02-8.96.41-12.82 1.09-11.34 2.01-13.4 6.2-13.4 13.94v10.22h26.81v3.4h-36.88c-7.79 0-14.61 4.69-16.75 13.6-2.46 10.21-2.57 16.58 0 27.25 1.91 7.94 6.46 13.59 14.25 13.59h9.22v-12.25c0-8.85 7.66-16.65 16.75-16.65h26.78c7.46 0 13.41-6.14 13.41-13.63v-25.53c0-7.27-6.13-12.72-13.41-13.94-4.6-.76-9.38-1.11-13.96-1.09m-14.5 8.22c2.77 0 5.03 2.3 5.03 5.12s-2.26 5.1-5.03 5.1c-2.78 0-5.04-2.28-5.04-5.1s2.26-5.12 5.04-5.12" style="fill:url(#c);fill-opacity:1;stroke-width:1" transform="matrix(21.83434 0 0 21.83434 -129896.345 -66804.899)"/><path d="M6071.06 3123.91v11.91c0 9.23-7.82 17-16.75 17h-26.78c-7.33 0-13.4 6.28-13.4 13.63v25.53c0 7.26 6.32 11.54 13.4 13.62 8.49 2.5 16.63 2.95 26.78 0 6.75-1.95 13.41-5.88 13.41-13.62v-10.22h-26.78v-3.41h40.19c7.79 0 10.69-5.43 13.4-13.59 2.8-8.4 2.68-16.48 0-27.25-1.92-7.76-5.6-13.6-13.4-13.6zm-15.06 64.66c2.78 0 5.03 2.28 5.03 5.09 0 2.83-2.25 5.13-5.03 5.13-2.77 0-5.03-2.3-5.03-5.13 0-2.81 2.26-5.09 5.03-5.09" style="fill:url(#d);fill-opacity:1;stroke-width:1" transform="matrix(21.83434 0 0 21.83434 -129896.345 -66804.899)"/></svg>