<svg xmlns="http://www.w3.org/2000/svg" width="4097" height="4096" viewBox="-1 0 4097 4096"><defs><clipPath id="a" clipPathUnits="userSpaceOnUse"><path d="M0 0h4096v4096H0z"/></clipPath></defs><g clip-path="url(#a)"><path d="M1023 0C457.4 0-1 458.5-1 1024v2048c0 565.5 458.4 1024 1024 1024h2048c565.5 0 1024-458.5 1024-1024V1149.1h1V0H2513.9q.9 14.2.9 28.6c0 257.8-209 466.8-466.8 466.8s-466.8-209-466.8-466.8q0-14.4.9-28.6z" class="a" style="fill:#654ff0"/></g><path fill="#fff" d="M928.71 2161.41h266.44l181.91 968.75h3.28l218.62-968.75h249.23l197.47 980.64h3.88l207.32-980.64h261.32l-339.56 1423.47h-264.41l-195.82-968.75h-5.13l-209.62 968.75h-269.33zm1889.88 0h420.03l417.14 1423.47h-274.85l-90.72-316.76h-478.5l-70.03 316.76h-267.69zm159.89 350.86-116.21 522.25h361.7l-133.42-522.25z" style="stroke-width:6.569"/></svg>