<svg xmlns="http://www.w3.org/2000/svg" width="4011" height="4010"><path d="M1002.5 0C448.8 0 0 448.8 0 1002.5v2005C0 3561.2 448.8 4010 1002.5 4010h2005c553.7 0 1002.5-448.8 1002.5-1002.5V1125h1V0H2886z" class="a" style="fill:#30303f"/><path fill="#13aff0" d="m609.5 2668.43 234.783 404.56c47.48 91.99 142.44 155.04 250.597 155.04h1564.33l-321.81-559.6zm2791 2.62c0-55.2-15.85-107.77-44.86-152.39L2437.63 931.772c-47.48-89.374-139.82-149.807-247.98-149.807h-485.38L3120.86 3225.42l224.23-386.27c42.21-73.56 55.41-105.05 55.41-168.1m-1295.27-401.98-633.09-1090.33-633.129 1090.33z" style="stroke-width:1"/></svg>