<svg xmlns="http://www.w3.org/2000/svg" width="4011" height="4010" viewBox="-1 0 4011 4010"><path d="M1001.5 0C447.8 0-1 448.8-1 1002.5v2005C-1 3561.2 447.8 4010 1001.5 4010h2005c553.7 0 1002.5-448.8 1002.5-1002.5V1125h1V0H2885z" class="a" style="fill:#30303f"/><path fill="#1185fe" d="M1238.6 974.178c310.24 232.882 643.89 705.092 766.4 958.512 122.51-253.42 456.16-725.63 766.4-958.512 223.83-168.04 586.5-298.106 586.5 115.652 0 82.62-47.4 694.13-75.15 793.4-96.57 345.18-448.51 433.21-761.59 379.89 547.22 93.16 686.43 401.67 385.81 710.14-570.98 585.9-820.66-147-884.66-334.78-11.76-34.43-17.22-50.52-17.31-36.85-.09-13.67-5.6 2.42-17.31 36.85-63.96 187.78-313.64 920.72-884.66 334.78-300.621-308.47-161.412-617.02 385.81-710.14-313.08 53.32-665.017-34.71-761.587-379.89-27.804-99.27-75.156-710.78-75.156-793.4 0-413.758 362.673-283.692 586.503-115.652" style="stroke-width:1"/></svg>