<svg xmlns="http://www.w3.org/2000/svg" width="4011" height="4010" viewBox="-1 0 4011 4010"><path d="M1001.5 0C447.8 0-1 448.8-1 1002.5v2005C-1 3561.2 447.8 4010 1001.5 4010h2005c553.7 0 1002.5-448.8 1002.5-1002.5V1125h1V0H2885z" class="a" style="fill:#fff"/><path xmlns="http://www.w3.org/2000/svg" stroke="#000" stroke-linejoin="round" d="M2770.54 661.764c-193.6 22.49-353.75 49.368-509.53 163.448C937.547 731.973 595.841 1650.67 670.989 2244.67 825.108 3388.24 2384.43 3693.74 2900.53 2921.49c-408.05 421.77-1056.91 479.91-1553.27 168.93-496.372-310.99-740.991-953.8-456.883-1492.95C1175.04 1058.86 1675.8 882.802 2225.9 985.37c133.3-77.888 286.87-176.608 420.14-174.967l-93.23 266.557 699.85 1172.09c-24.13 310.44-299.47 335.67-299.47 335.67-31.81-80.62-89.95-161.8-266-331.28-175.52-169.48-957.65-558.34-865.5-889.07-109.7 382.29 565.47 776.63 770.06 969.15 204.57 192.52 297.27 331.28 317.57 370.22 0 0 515.01-137.12 429.99-489.79L2684.98 1027.6z" style="stroke-width:1"/></svg>