<svg xmlns="http://www.w3.org/2000/svg" width="4011" height="4010"><defs><clipPath id="a" clipPathUnits="userSpaceOnUse"><path d="M0 0h4010v4010H0z"/></clipPath></defs><g clip-path="url(#a)"><path d="M1002.5 0C448.8 0 0 448.8 0 1002.5v2005C0 3561.2 448.8 4010 1002.5 4010h2005c553.7 0 1002.5-448.8 1002.5-1002.5V1125h1V0H2886z" class="a" style="fill:#069"/></g><path fill="#FFF" fill-rule="evenodd" d="M3218.36 3218.36h-498.61v-849.24c0-232.86-88.47-362.98-272.77-362.98-200.49 0-305.24 135.42-305.24 362.98v849.24h-480.53V1600.54h480.53v217.92s144.48-267.35 487.79-267.35c343.17 0 588.83 209.55 588.83 642.95zM1087.94 1388.7c-163.672 0-296.305-133.67-296.305-298.54 0-164.862 132.633-298.525 296.305-298.525 163.68 0 296.23 133.663 296.23 298.525 0 164.87-132.55 298.54-296.23 298.54M839.824 3218.36h501.066V1600.54H839.824z" style="stroke-width:33.982"/></svg>