<svg xmlns="http://www.w3.org/2000/svg" width="4011" height="4010" viewBox="-1 0 4011 4010"><path d="M1001.5 0C447.8 0-1 448.8-1 1002.5v2005C-1 3561.2 447.8 4010 1001.5 4010h2005c553.7 0 1002.5-448.8 1002.5-1002.5V1125h1V0H2885z" class="a" style="fill:#30303f"/><path d="M4285.26 2904.95v-643.72h213.65v857.37H2570.54v-857.37h213.64v643.72z" class="st0" style="fill:#bcbbbb;stroke-width:1" transform="matrix(1.04398 0 0 1.04398 -1737.334 3.498)"/><path d="m3020.03 2200.19 1048.81 219.2 44.39-210.88-1048.81-219.19zm138.73-499.44 971.12 452.27 88.79-194.22-971.12-455.04zm269.14-477.23 824.07 685.33 135.96-163.7-824.07-685.34zm532.73-507.763L3788.6 843.391l638.17 860.139 172.03-127.63zm-962.8 1972.773h1071.01v-213.65H2997.83z" class="st1" style="fill:#f48023;stroke-width:1" transform="matrix(1.04398 0 0 1.04398 -1737.334 3.498)"/></svg>