<svg xmlns="http://www.w3.org/2000/svg" width="4011" height="4010" viewBox="-1 0 4011 4010"><defs><clipPath id="a" clipPathUnits="userSpaceOnUse"><path d="M0 0h4010v4010H0z"/></clipPath></defs><g clip-path="url(#a)"><path d="M1001.5 0C447.8 0-1 448.8-1 1002.5v2005C-1 3561.2 447.8 4010 1001.5 4010h2005c553.7 0 1002.5-448.8 1002.5-1002.5V1125h1V0H2885z" class="a" style="fill:#30303f"/></g><path fill="#1d9bf0" d="M3067.77 1459.77c1.62 23.56 1.62 47.12 1.62 70.9 0 724.59-551.59 1560.24-1560.25 1560.24v-.43c-297.95.43-589.712-84.91-840.542-245.83 43.316 5.21 86.864 7.82 130.512 7.92 246.93.22 486.78-82.62 681.04-235.19-234.65-4.45-440.41-157.44-512.288-380.8 82.188 15.85 166.878 12.59 247.578-9.45-255.832-51.69-439.893-276.46-439.893-537.49v-6.96a544.8 544.8 0 0 0 248.893 68.63c-240.961-161.03-315.229-481.57-169.729-732.18 278.409 342.58 689.189 550.84 1130.149 572.89-44.2-190.46 16.17-390.03 158.63-523.92 220.87-207.621 568.22-196.98 775.83 23.78 122.82-24.22 240.52-69.28 348.24-133.125-40.93 126.935-126.62 234.755-241.05 303.275 108.69-12.82 214.89-41.92 314.89-86.32-73.61 110.32-166.35 206.42-273.63 284.06" style="stroke-width:1"/></svg>