<svg xmlns="http://www.w3.org/2000/svg" width="4011" height="4010" viewBox="-1 0 4011 4010"><defs><clipPath id="a" clipPathUnits="userSpaceOnUse"><path d="M0 0h4010v4010H0z"/></clipPath></defs><g clip-path="url(#a)"><path d="M1001.5 0C447.8 0-1 448.8-1 1002.5v2005C-1 3561.2 447.8 4010 1001.5 4010h2005c553.7 0 1002.5-448.8 1002.5-1002.5V1125h1V0H2885z" class="a" style="fill:#30303f"/></g><path fill="red" d="M3314.352 1347.173c-31.49-117.662-123.965-210.127-241.626-241.623-213.043-57.144-1067.73-57.144-1067.73-57.144s-854.677 0-1067.729 57.144c-117.66 31.496-210.126 123.961-241.622 241.623C638.5 1560.224 638.5 2005 638.5 2005s0 444.778 57.144 657.83c31.496 117.662 123.961 210.126 241.622 241.617 213.052 57.147 1067.728 57.147 1067.728 57.147s854.688 0 1067.731-57.147c117.661-31.491 210.135-123.955 241.626-241.616C3371.5 2449.778 3371.5 2005 3371.5 2005s-.23-444.777-57.147-657.828"/><path fill="#fff" d="m1731.438 2414.939 710.022-409.9-710.022-409.908z"/></svg>