<svg xmlns="http://www.w3.org/2000/svg" width="4011" height="4010" viewBox="-1 0 4011 4010"><defs><clipPath id="a" clipPathUnits="userSpaceOnUse"><path d="M0 0h4010v4010H0z"/></clipPath></defs><g clip-path="url(#a)"><path d="M1001.5 0C447.8 0-1 448.8-1 1002.5v2005C-1 3561.2 447.8 4010 1001.5 4010h2005c553.7 0 1002.5-448.8 1002.5-1002.5V1125h1V0H2885z" class="a" style="fill:#30303f"/></g><path fill="#ff8080" d="M3418.78 1394.58v12.55l-30.11-30.1 10-10 15.19 15.2c-.41 1.1-.62 2.26-.61 3.43a9.9 9.9 0 0 0 5.53 8.92m9.22 1.81 4.68 4.68-4.68 4.69zm28.63-19.26-18.08 18.07-6.09-6.07c.56-1.49.74-3.09.54-4.67-.63-4.77-4.57-8.42-9.39-8.68-1.32-.07-2.64.14-3.89.6l-15.19-15.25 12.88-12.83a7.333 7.333 0 0 1 10.41 0z" style="stroke-width:1" transform="matrix(20.46144 0 0 20.46144 -68029.502 -26908.93)"/><path fill="#80b3ff" d="m3412.8 1418.66-27.36 27.36-27.14-26.89c-3.19-3.32-3.15-8.58.09-11.86l27.99-28 26.42 26.51c3.54 3.56 3.54 9.32 0 12.88" style="stroke-width:1" transform="matrix(20.46144 0 0 20.46144 -68029.502 -26908.93)"/><path fill="#ffe680" d="M3428.05 1421.92v11.49a9.47 9.47 0 0 1 4.46 9.88 9.31 9.31 0 0 1-7.42 7.53c-7.12 1.56-13.25-5.18-11.04-12.13a9.47 9.47 0 0 1 4.73-5.56v-12.7c-.08-.76-.95-1.17-1.58-.72-.02.01-.04.03-.06.04l-28.66 28.66 29.49 29.5c2.87 2.86 7.5 2.86 10.36 0l27.82-27.78z" style="stroke-width:1" transform="matrix(20.46144 0 0 20.46144 -68029.502 -26908.93)"/><path fill="#8dd35f" d="m3486.57 1420.58-26.53 26.55-28.57-28.58c-3.34-3.34-3.34-8.75 0-12.1l3.29-3.32 7.29 7.27c-2.64 7.17 3.46 14.5 10.99 13.21 7.52-1.3 10.82-10.26 5.94-16.13a9.93 9.93 0 0 0-11.05-2.96l-7.25-7.24 18.53-18.53 27.36 27.38c4.01 3.99 4.01 10.47 0 14.45" style="stroke-width:1" transform="matrix(20.46144 0 0 20.46144 -68029.502 -26908.93)"/></svg>