<svg xmlns="http://www.w3.org/2000/svg" width="4010" height="4010" version="1.2"><defs><clipPath id="a" clipPathUnits="userSpaceOnUse"><path d="M0 0h4010v4010H0z"/></clipPath></defs><g clip-path="url(#a)"><path d="M1001.5 0C447.8 0-1 448.8-1 1002.5v2005C-1 3561.2 447.8 4010 1001.5 4010h2005c553.7 0 1002.5-448.8 1002.5-1002.5V1125h1V0H2885z" style="fill:#894c85"/><path fill-rule="evenodd" d="M1418.2 890.8c458-144.4 433.9 354.4 467 597.6 33 243.2 102.3 490.1 102.3 490.1C2393.8 928.1 2450 960.2 2450 960.2c215-135.6 363.9-60.5 363.9-60.5C2692.3 2034.3 3071 2431.2 3071 2431.2c-23.4 168.1-228.7 205.5-228.7 205.5-252 65.3-392.4-308.2-415.4-336.2s-47.1-691.1-47.1-691.1-354.9 905.9-429.6 989.9-121.1 60.5-121.1 60.5c-298.5-28.2-345.9-1166.9-345.9-1166.9s-284.9 714.2-411 961.5c-126 247.3-354.9 210.3-369.1 196.5-14.2-13.9-32.1-65.8-32.1-65.8 84.4 18.5 718.8-1479.9 728.5-1526.3 9.7-46.3-61.3-93.3-61.3-93.3-19-27.3 80-74.7 80-74.7M2096.6 2739l64.3-64.2.7.7v-.7h197.3l.7-.8 65 65h.8v128.5h-106.9v-97.9H2202v97.9h.7l220.5 170.3h2.2v1.7l.7.6h-.7v126.2h-1.5l1.5 1.5-65.8 65.8-.7-.8h-197.3v-.7l-.7.7-64.3-64.2h-1.5v-128.5H2202v97.8h116.5v-97.8h-.7l-223.4-172.6h.7V2739zm479-47.1 84.5 355.7 103.8-355.7h97.1L2703.7 3231l.4 1.8h-1l-61 209.2h-97.2l61.6-211-128.1-539.1zm313.1 47.1 64.3-64.2.7.7v-.7H3151l.7-.8 65 65h.8v128.5h-106.9v-97.9h-116.5v97.9h.7l220.5 170.3h2.2v1.7l.7.6h-.7v126.2h-1.5l1.5 1.5-65.8 65.8-.7-.8h-197.3v-.7l-.7.7-64.3-64.2h-1.5v-128.5h106.9v97.8h116.5v-97.8h-.7l-223.4-172.6h.7V2739z" style="fill:#fff"/><path d="M2636.8 1563.1c-206.8-346.4 378.1-466.9 378.1-466.9s644.8 121.4 88.9 770.2c0 0-41.8 218.9 149.5 83.7 0 0 89.3-73.8 88.9-88.2-.4-14.3 134.7 400.8-117.3 499.1 0 0-18.9-74.9-74.7-93.4-55.9-18.5-550.7-18.7-550.7-18.7s-66-17.7-9.7-88.1c56.2-70.4 504.5-630.4 219.6-723.9 0 0-121 65.1-116.5 135.2 0 0-41.7 15.1-56.1-9z" style="fill:#ff7f00;stroke:#fff;stroke-miterlimit:100"/></g></svg>