<?xml version="1.0" encoding="UTF-8" standalone="no"?>
<svg height="868" id="svg218" sodipodi:docname="runjs.svg" version="1.1" viewBox="0 0 229.65834 229.65834" width="868" xml:space="preserve" xmlns:cc="http://creativecommons.org/ns#" xmlns:dc="http://purl.org/dc/elements/1.1/" xmlns:rdf="http://www.w3.org/1999/02/22-rdf-syntax-ns#" xmlns:sodipodi="http://sodipodi.sourceforge.net/DTD/sodipodi-0.dtd" xmlns:svg="http://www.w3.org/2000/svg" xmlns="http://www.w3.org/2000/svg">
  <title> Run JS </title>
  <sodipodi:namedview bordercolor="#EEEEEE" borderopacity="1" pagecolor="#505050" showgrid="false"/>
  <defs>
    <filter color-interpolation-filters="sRGB" filterUnits="userSpaceOnUse" height="868" id="filter0_d" width="868" x="78" y="89">
      <feFlood flood-opacity="0" result="BackgroundImageFix"/>
      <feColorMatrix in="SourceAlpha" type="matrix" values="0 0 0 0 0 0 0 0 0 0 0 0 0 0 0 0 0 0 127 0"/>
      <feOffset dy="11"/>
      <feGaussianBlur stdDeviation="11"/>
      <feColorMatrix type="matrix" values="0 0 0 0 0 0 0 0 0 0 0 0 0 0 0 0 0 0 0.28 0"/>
      <feBlend in2="BackgroundImageFix" mode="normal" result="effect1_dropShadow"/>
      <feBlend in2="effect1_dropShadow" in="SourceGraphic" mode="normal" result="shape"/>
    </filter>
    <linearGradient gradientUnits="userSpaceOnUse" id="paint0_linear" x1="512" x2="512" y1="100" y2="924">
      <stop stop-color="white"/>
      <stop offset="1"/>
    </linearGradient>
  </defs>
  <g>
    <g style="fill:none" transform="matrix(0.26458333, 0, 0, 0.26458333, -20.6375, -23.547916)">
      <g filter="url(#filter0_d)">
        <rect fill="#F7DF1E" height="824" rx="184" width="824" x="100" y="100"/>
        <rect fill="url(#paint0_linear)" fill-opacity="0.5" height="824" rx="184" style="fill: url(#paint0_linear); mix-blend-mode: overlay" width="824" x="100" y="100"/>
      </g>
      <path clip-rule="evenodd" d="m 870.059, 667.414 c 4.068, -2.403 4.068, -8.289 0, -10.692 L 765.617, 595.006 736.585, 613.683 C 730.081, 602.013 723.04, 597.4 712.202, 597.4 c -11.109, 0 -18.154, 7.056 -18.154, 16.283 0, 11.398 7.045, 16.014 23.3, 23.071 l 9.482, 4.07 c 32.243, 13.843 50.395, 27.954 50.395, 59.705 0, 9.726 -2.169, 18.2 -6.102, 25.348 z m -144.537, 85.408 c -3.6, 0.419 -7.325, 0.631 -11.154, 0.631 -35.221, 0 -57.98, -16.826 -69.088, -38.811 l 0.002, -0.001 30.883, -17.912 c 8.131, 13.3 18.698, 23.07 37.391, 23.07 15.718, 0 25.739, -7.872 25.739, -18.728 0, -13.027 -10.295, -17.641 -27.635, -25.238 l -9.481, -4.075 c -27.366, -11.666 -45.518, -26.323 -45.518, -57.262 0, -28.497 21.674, -50.21 55.543, -50.21 0.483, 0 0.964, 0.003 1.442, 0.01 L 522.312, 451.235 c -4.139, -2.446 -9.369, 0.538 -9.369, 5.346 v 261.047 l 29.1, -17.641 c 5.96, 10.584 11.38, 19.538 24.383, 19.538 12.464, 0 20.323, -4.883 20.323, -23.879 V 566.459 h 37.93 v 129.724 c 0, 39.352 -23.029, 57.265 -56.627, 57.265 -28.437, 0 -45.693, -13.825 -55.109, -31.199 v 145.306 c 0, 4.808 5.23, 7.792 9.369, 5.346 z" fill="#000000" fill-rule="evenodd"/>
    </g>
  </g>
  <metadata> <rdf:RDF> <cc:Work rdf:about=""> <dc:title> Run JS </dc:title> </cc:Work> </rdf:RDF> </metadata>
</svg>
