<svg xmlns="http://www.w3.org/2000/svg" width="4011" height="4010"><defs><clipPath id="a" clipPathUnits="userSpaceOnUse"><path d="M0 0h4010v4010H0z"/></clipPath></defs><linearGradient id="b" x1="136.178" x2="372.681" y1="369.638" y2="287.81" gradientTransform="matrix(6.97251 0 0 6.97251 261.87 262.216)" gradientUnits="userSpaceOnUse"><stop offset=".233" stop-color="#f89822"/><stop offset="1" stop-color="#c27818"/></linearGradient><g clip-path="url(#a)"><path d="M1002.5 0C448.8 0 0 448.8 0 1002.5v2005C0 3561.2 448.8 4010 1002.5 4010h2005c553.7 0 1002.5-448.8 1002.5-1002.5V1125h1V0H2886z" class="a" style="fill:#4d4d4e"/></g><path fill="#f89820" d="M1165.51 1388.28 2795.7 870.92s115.74-60.66 87.85 51.603l4.18 498.527s20.23 73.21-80.18 91.35l-662.41 207.07z" style="stroke-width:1.936" transform="matrix(1.02976 0 0 1.02976 -59.635 -59.732)"/><path fill="#f89820" d="M1165.51 1388.28s-64.15 15.35-45.33 124.82l-3.48 480.4s-5.58 60.65 109.47 85.06l1615.55 520.15s54.37 21.62 48.1-45.32l.7-535.5s15.35-55.07-85.06-91.33l-660.32-207.09z" style="stroke-width:1.936" transform="matrix(1.02976 0 0 1.02976 -59.635 -59.732)"/><path fill="url(#b)" d="m1877.4 2287.74-687.49 209.86s-82.97 2.79-73.21 158.29c9.76 155.49-.7 468.54-.7 468.54s6.97 57.88 86.46 24.41l1630.2-520.14s57.86-14.64 9.06-30.69c-48.81-15.33-964.32-310.27-964.32-310.27" style="stroke-width:1.936" transform="matrix(1.02976 0 0 1.02976 -59.635 -59.732)"/></svg>